<?xml version="1.0" standalone="no"?>
<!DOCTYPE svg PUBLIC "-//W3C//DTD SVG 20010904//EN"
 "http://www.w3.org/TR/2001/REC-SVG-20010904/DTD/svg10.dtd">
<svg version="1.0" xmlns="http://www.w3.org/2000/svg"
 width="1031.000000pt" height="1031.000000pt" viewBox="0 0 1031.000000 1031.000000"
 preserveAspectRatio="xMidYMid meet">
<metadata>
Created by potrace 1.15, written by Peter Selinger 2001-2017
</metadata>
<g transform="translate(0.000000,1031.000000) scale(0.100000,-0.100000)"
fill="#000000" stroke="none">
<path d="M1 7883 c1 -2046 3 -2406 14 -2288 69 749 299 1483 666 2122 403 702
969 1303 1647 1747 720 472 1523 752 2387 831 118 11 -242 13 -2287 14 l-2428
1 1 -2427z"/>
<path d="M5615 10295 c749 -69 1483 -299 2122 -666 702 -403 1303 -969 1747
-1647 427 -650 699 -1378 805 -2152 19 -134 19 -120 20 2173 l1 2307 -2417 -1
c-2038 -1 -2396 -3 -2278 -14z"/>
<path d="M4790 9993 c-88 -27 -116 -33 -165 -37 -59 -4 -135 -33 -152 -57 -7
-9 -34 -27 -60 -40 -27 -12 -56 -31 -66 -43 -17 -21 -17 -21 -29 -1 -12 19
-13 18 -18 -9 -5 -29 -5 -29 -24 -10 -19 18 -20 18 -13 0 6 -14 4 -17 -9 -12
-38 15 -126 19 -134 6 -4 -7 -29 -13 -56 -14 -61 -2 -212 -74 -311 -148 -63
-47 -174 -108 -198 -108 -34 0 -238 -156 -294 -224 -9 -10 -35 -39 -58 -64
-24 -25 -43 -49 -43 -54 0 -4 -6 -8 -12 -8 -15 0 -43 -31 -99 -109 -22 -30
-57 -70 -78 -90 -22 -20 -46 -49 -55 -66 -27 -51 -40 -67 -73 -99 -18 -17 -33
-38 -33 -48 0 -9 -8 -19 -18 -22 -10 -4 -26 -22 -35 -41 -9 -19 -23 -35 -31
-35 -7 0 -17 -12 -20 -26 -8 -30 -75 -134 -87 -134 -5 0 -9 -7 -9 -15 0 -8 -4
-15 -10 -15 -5 0 -15 -18 -21 -40 -7 -22 -16 -40 -20 -40 -4 0 -10 -18 -14
-40 -4 -22 -13 -44 -21 -48 -8 -4 -16 -19 -19 -31 -2 -13 -11 -31 -20 -41 -8
-9 -15 -24 -15 -34 0 -9 -9 -42 -21 -74 -18 -49 -55 -182 -74 -262 -5 -22 -4
-23 5 -5 9 18 10 17 4 -5 -3 -14 -5 -35 -5 -48 1 -13 -4 -20 -9 -17 -6 3 -10
1 -10 -4 0 -6 4 -11 9 -11 10 0 2 -122 -9 -130 -4 -3 -11 -36 -14 -75 -4 -38
-12 -90 -17 -115 -11 -49 -17 -190 -9 -190 3 0 7 -28 8 -62 1 -35 5 -81 8
-102 5 -32 4 -38 -9 -33 -11 4 -13 0 -9 -16 2 -12 9 -27 13 -33 9 -11 2 -52
-12 -70 -5 -6 -7 -14 -4 -17 3 -4 2 -5 -1 -2 -4 2 -13 -2 -20 -10 -8 -8 -20
-12 -27 -9 -7 2 -17 -6 -22 -18 -8 -19 -6 -27 18 -46 15 -13 27 -28 27 -33 0
-6 12 -21 27 -34 24 -21 26 -26 13 -35 -13 -8 -13 -10 3 -10 9 0 17 -5 17 -11
0 -5 -5 -7 -11 -3 -6 3 -4 -8 5 -24 21 -40 21 -59 1 -42 -12 10 -15 10 -15 -3
0 -9 9 -19 21 -22 13 -5 18 -12 14 -22 -3 -9 3 -25 12 -36 13 -15 15 -21 6
-24 -7 -3 -13 -14 -13 -25 0 -15 5 -18 20 -13 15 5 20 2 21 -12 1 -18 1 -24
-9 -57 -3 -13 -1 -17 6 -12 7 4 12 1 12 -9 0 -9 -9 -19 -20 -22 -11 -3 -20
-10 -20 -15 0 -6 9 -8 20 -5 13 3 20 0 20 -8 0 -7 3 -20 6 -28 4 -11 -4 -17
-25 -22 -19 -4 -31 -13 -31 -23 0 -13 -4 -11 -16 6 -10 14 -24 22 -37 20 -28
-4 -32 -23 -9 -46 14 -14 16 -25 10 -41 -5 -14 -4 -20 3 -16 12 8 41 -14 33
-26 -3 -5 -1 -9 5 -9 5 0 17 -7 26 -16 15 -15 15 -18 0 -34 -9 -10 -13 -20 -8
-23 4 -3 7 -31 6 -62 -1 -49 -4 -59 -24 -69 -13 -6 -25 -20 -27 -30 -3 -14 0
-17 18 -11 17 5 21 4 17 -6 -2 -8 -11 -13 -18 -11 -8 2 -10 0 -6 -5 5 -4 14
-8 20 -8 7 0 11 -11 10 -23 -2 -14 3 -22 12 -22 14 0 19 -14 18 -47 0 -7 9
-15 21 -19 31 -10 81 -54 82 -73 0 -9 -5 -22 -10 -30 -9 -12 -8 -13 9 -4 16 9
23 7 39 -10 15 -17 18 -18 13 -4 -4 9 -3 17 2 17 15 0 29 -23 40 -67 7 -24 16
-43 21 -43 6 0 10 -10 9 -22 0 -21 -1 -21 -8 -4 -13 33 -18 -2 -12 -71 4 -34
3 -59 -1 -57 -16 10 -21 -29 -6 -40 10 -8 14 -28 14 -68 -1 -49 -4 -58 -19
-58 -10 0 -15 -5 -12 -10 6 -9 11 -103 18 -325 1 -22 -2 -52 -7 -66 -5 -18 -3
-31 7 -41 10 -9 18 -46 22 -96 6 -59 11 -79 20 -75 7 2 16 -5 20 -16 3 -12 13
-21 21 -21 13 0 13 -2 0 -16 -19 -18 -21 -35 -4 -31 7 1 14 -8 16 -20 4 -24
-13 -32 -21 -10 -3 6 -6 3 -6 -8 0 -11 6 -29 14 -39 17 -22 19 -36 6 -36 -5 0
-11 8 -15 18 -7 22 -28 55 -41 65 -6 4 -5 10 4 16 10 7 5 13 -23 26 -20 10
-36 21 -36 25 0 5 -9 6 -19 3 -11 -3 -28 4 -39 15 -19 19 -19 21 -4 25 12 3
10 5 -5 6 -13 0 -23 5 -23 9 0 7 -26 8 -70 4 -10 -2 -7 -10 13 -28 15 -14 34
-23 41 -21 8 3 13 -1 12 -11 0 -9 10 -21 22 -28 15 -7 19 -13 11 -16 -8 -3
-10 -11 -5 -24 4 -10 8 -21 9 -24 0 -3 7 -16 14 -30 10 -19 10 -26 0 -32 -9
-6 -8 -11 5 -18 9 -6 23 -16 30 -23 18 -17 65 -37 88 -37 15 0 20 7 20 24 0
14 4 27 9 30 14 9 39 -4 45 -22 3 -10 3 -3 0 13 -7 45 -7 47 -6 83 1 18 6 31
11 27 5 -3 13 20 16 50 4 30 10 55 14 55 3 0 7 10 8 23 0 12 4 51 9 87 4 36 9
97 10 135 5 103 6 109 18 118 8 5 7 9 -2 15 -16 11 -12 102 6 120 11 13 17 85
13 163 -2 26 2 38 14 43 14 5 15 9 4 22 -10 12 -10 22 0 50 11 29 10 38 -2 57
-18 26 -64 74 -136 142 -49 45 -121 139 -121 157 0 16 19 7 25 -12 11 -35 128
-145 195 -184 36 -21 77 -49 92 -63 18 -17 34 -24 47 -20 24 6 39 -10 17 -19
-12 -5 -11 -11 6 -40 11 -19 24 -34 29 -34 4 0 6 -6 3 -14 -6 -17 17 -31 66
-40 l35 -7 -35 18 -35 17 45 6 c25 4 35 8 23 8 -22 2 -28 14 -24 53 1 10 -11
21 -31 29 -18 7 -52 26 -76 42 -24 16 -60 35 -80 44 -26 11 -33 17 -23 23 10
7 10 10 1 16 -9 6 -9 9 1 15 7 5 13 31 14 62 1 30 4 59 7 64 6 10 12 108 11
172 0 23 4 42 9 42 5 0 7 18 5 40 -2 22 0 43 4 46 5 3 9 20 9 39 0 19 4 36 9
39 5 3 7 14 4 24 -2 10 5 35 16 56 12 20 21 43 21 52 0 8 11 19 25 24 14 5 25
13 25 18 0 4 18 28 40 52 22 24 40 51 40 60 0 13 -1 13 -10 0 -8 -12 -10 -12
-10 5 0 11 9 26 20 33 11 7 20 18 20 26 0 8 8 17 17 20 14 6 15 9 4 15 -24 15
21 125 61 148 l23 13 -22 6 c-22 6 -32 24 -14 24 5 0 8 8 6 18 -2 9 -4 17 -5
17 -1 0 -3 22 -3 48 -2 42 1 49 21 54 25 6 30 23 7 23 -8 0 -15 5 -15 10 0 6
5 10 12 10 6 0 8 3 5 6 -4 4 -13 1 -22 -6 -19 -15 -34 -5 -17 12 7 7 12 22 12
34 0 13 7 30 16 38 8 9 11 16 6 16 -5 0 -15 -7 -22 -15 -21 -25 -32 -17 -14
10 9 14 14 29 10 33 -4 3 -11 0 -16 -8 -5 -8 -12 -12 -15 -8 -4 3 -1 15 6 27
16 24 5 39 -16 21 -11 -10 -15 -10 -15 0 0 6 9 14 20 17 11 3 20 9 20 14 0 15
-27 10 -45 -7 -22 -22 -33 -9 -12 14 10 10 17 27 17 38 0 11 5 25 12 32 9 9 8
12 -4 12 -15 0 -15 3 -2 30 9 17 13 38 11 48 -4 13 -5 11 -6 -5 -1 -14 -7 -23
-17 -23 -8 0 -12 -4 -9 -10 3 -5 4 -10 1 -10 -3 0 -10 9 -16 19 -7 14 -7 22 2
27 7 4 8 3 4 -4 -4 -7 -2 -12 3 -12 14 0 14 6 1 31 -6 11 -7 19 -2 19 6 0 12
9 15 21 5 17 11 20 35 14 25 -5 33 -1 51 21 11 15 21 33 21 40 0 7 9 16 20 19
11 3 20 12 20 19 0 8 6 19 13 25 8 6 22 37 32 68 11 32 23 63 27 69 5 6 6 18
2 27 -3 9 3 24 14 35 11 11 22 31 24 44 2 13 9 22 16 20 6 -1 12 4 12 10 1 25
29 -38 30 -65 0 -17 4 -26 11 -22 6 4 8 13 5 20 -2 7 2 16 10 19 8 3 14 19 14
41 0 28 4 35 20 35 25 0 27 -27 3 -33 -14 -4 -13 -5 4 -6 16 -1 24 6 29 23 3
14 13 27 21 31 24 9 29 -4 7 -19 -18 -14 -18 -15 6 -20 85 -20 140 -22 170 -8
17 8 35 23 41 33 12 23 -3 25 -21 4 -7 -8 -17 -15 -23 -15 -7 0 3 14 21 30 34
30 48 38 37 20 -3 -5 -1 -10 4 -10 25 0 -2 -39 -51 -75 -16 -12 -19 -19 -10
-22 10 -4 9 -9 -4 -24 -10 -11 -12 -19 -6 -19 7 0 12 4 12 10 0 5 6 7 14 4 9
-3 22 9 37 35 12 23 26 41 31 41 4 0 8 5 8 10 0 6 11 23 25 38 14 15 25 36 25
47 1 32 24 55 48 48 24 -6 29 6 10 26 -11 10 -8 12 14 9 35 -5 46 -17 28 -29
-12 -8 -5 -19 38 -58 52 -48 64 -65 38 -55 -8 3 -17 1 -21 -5 -3 -6 2 -11 13
-11 35 0 115 -32 101 -41 -11 -6 -11 -9 1 -13 40 -12 81 -18 148 -21 40 -2 89
-5 110 -8 20 -3 29 -3 20 -1 -30 9 -20 23 20 29 20 3 45 10 54 16 10 5 23 9
29 9 7 0 35 11 63 24 28 13 68 27 89 30 21 4 44 9 52 12 7 3 27 -9 45 -26 39
-38 69 -50 123 -49 37 1 39 2 15 9 -43 13 -51 20 -37 36 6 8 8 14 3 15 -5 1
29 9 76 19 72 15 89 15 111 4 15 -7 29 -10 33 -7 3 4 6 2 6 -4 0 -9 -67 -43
-113 -57 -18 -6 -18 -7 -1 -23 12 -13 19 -14 22 -5 2 6 14 12 27 12 13 0 31 7
39 16 9 8 20 12 26 9 5 -3 10 -2 10 3 0 13 27 23 45 16 24 -9 17 -24 -10 -24
-14 0 -25 -5 -25 -11 0 -5 4 -8 9 -5 5 4 12 0 15 -6 5 -10 7 -10 12 0 3 6 13
12 23 12 9 0 26 7 37 15 20 15 80 20 108 9 15 -6 15 -8 -1 -20 -18 -14 -17
-13 70 13 9 3 17 1 17 -5 0 -6 -9 -14 -21 -17 -29 -10 -17 -17 15 -9 14 3 24
10 21 14 -3 5 4 6 15 3 21 -6 28 -43 8 -43 -6 0 -9 -3 -6 -6 13 -12 47 16 41
33 -6 14 0 15 44 10 28 -3 54 -2 59 3 5 5 23 10 41 12 18 1 29 7 26 14 -4 10
19 21 122 60 18 6 17 8 -10 14 -16 4 -22 8 -12 9 10 0 20 7 23 15 3 8 13 12
25 9 16 -4 17 -8 8 -14 -22 -13 -4 -20 25 -9 15 5 40 10 56 10 16 0 31 4 34 9
4 5 -16 8 -44 7 -27 -2 -50 1 -50 6 0 4 16 8 35 8 21 0 35 5 35 13 0 8 3 9 8
1 4 -6 29 -21 56 -33 27 -12 46 -24 42 -28 -3 -4 -12 -1 -18 5 -7 7 -17 12
-22 12 -6 0 -5 -5 2 -12 8 -8 8 -17 1 -30 -6 -11 -8 -23 -4 -26 3 -3 8 3 11
15 5 16 16 23 47 28 23 3 51 10 62 15 55 23 89 30 96 19 4 -7 15 -9 24 -5 9 3
22 3 28 -1 19 -12 47 -14 47 -3 0 6 -9 10 -19 10 -11 0 -22 4 -25 9 -3 5 -16
7 -28 3 -15 -4 -19 -2 -14 7 6 9 23 10 60 6 28 -4 63 -7 79 -6 15 0 27 -4 27
-10 0 -6 9 -8 20 -4 29 9 25 -2 -7 -20 l-28 -16 30 7 c17 4 62 8 100 9 73 1
108 12 156 46 16 11 37 18 47 16 16 -4 16 -5 0 -6 -27 -2 -21 -21 6 -21 13 0
27 7 30 16 8 21 26 8 21 -16 -3 -16 2 -20 24 -20 16 0 44 -3 62 -6 25 -4 30
-3 19 5 -8 5 -11 13 -7 18 9 8 27 -15 27 -34 0 -7 -5 -13 -11 -13 -8 0 -9 -4
0 -13 6 -8 7 -17 3 -22 -4 -4 2 -6 14 -3 12 3 29 1 38 -4 11 -6 16 -5 16 3 0
7 14 0 30 -16 27 -26 30 -27 31 -9 0 10 3 13 6 7 8 -21 22 -14 16 8 -3 11 -16
25 -29 30 -13 4 -24 14 -24 20 0 8 4 8 15 -1 18 -15 20 1 3 18 -7 7 -8 12 -2
12 5 0 2 4 -6 10 -8 5 -12 12 -8 15 3 3 13 -1 22 -10 14 -15 18 -15 38 -1 28
20 39 20 32 2 -3 -8 4 -16 18 -20 14 -5 18 -9 11 -13 -24 -9 -13 -19 22 -20
23 -1 35 4 35 12 0 19 27 12 44 -10 13 -18 14 -18 9 7 -4 20 -12 28 -31 30
-19 2 -28 11 -33 31 -6 23 -5 27 7 23 8 -3 14 0 14 6 0 7 5 6 15 -2 8 -7 15
-18 15 -26 0 -7 9 -16 21 -19 12 -4 18 -13 15 -20 -3 -9 0 -12 9 -9 7 3 16 -3
19 -13 3 -10 4 -3 2 15 -2 21 2 32 10 32 17 0 36 -34 50 -90 7 -26 12 -36 13
-22 2 32 21 27 21 -5 0 -16 4 -33 8 -39 11 -16 42 -25 42 -12 0 6 3 8 6 5 4
-4 2 -13 -5 -20 -9 -11 -8 -17 4 -27 8 -7 15 -23 15 -36 0 -13 8 -25 19 -29
16 -5 37 -55 32 -79 -1 -4 5 -19 14 -32 8 -13 11 -24 6 -24 -11 0 -3 -33 15
-69 9 -16 10 -29 4 -35 -6 -6 -5 -15 3 -25 9 -11 11 -28 6 -51 -3 -19 -7 -29
-8 -22 0 6 -6 12 -12 12 -12 0 -10 -9 15 -75 13 -36 13 -41 -1 -52 -15 -11
-15 -16 0 -53 8 -22 12 -40 8 -40 -13 0 -4 -160 11 -177 11 -15 11 -16 -4 -10
-30 11 -30 -11 -2 -49 l27 -35 -29 7 c-26 6 -27 5 -16 -8 10 -12 10 -18 1 -23
-7 -5 -9 -21 -6 -41 4 -20 1 -35 -6 -38 -7 -2 -3 -5 7 -5 18 -1 18 -2 -2 -19
-16 -14 -18 -22 -10 -30 7 -7 17 -12 24 -12 14 0 26 -25 16 -35 -3 -3 -7 -21
-8 -40 0 -25 4 -35 18 -38 10 -3 18 -14 18 -26 0 -12 5 -21 10 -21 6 0 10 -12
9 -27 -1 -34 35 -238 49 -275 6 -14 15 -29 21 -32 24 -15 80 -158 101 -256 11
-58 25 -118 30 -135 5 -16 7 -65 6 -108 -2 -43 0 -80 4 -82 15 -9 3 -50 -16
-54 -10 -2 -32 -16 -48 -32 -17 -16 -36 -29 -43 -29 -8 0 -13 -13 -13 -33 0
-40 5 -46 31 -40 23 6 25 23 2 23 -15 0 -14 2 3 15 10 8 27 15 37 15 14 0 16
-5 11 -26 -6 -24 -5 -25 13 -15 30 16 36 49 9 54 -17 3 -15 5 7 6 15 0 27 6
27 11 0 6 12 23 27 38 47 46 95 114 121 170 13 29 26 51 28 49 11 -11 -32
-107 -70 -155 -49 -63 -77 -112 -95 -168 -14 -44 -20 -135 -8 -127 4 2 7 -8 6
-24 0 -15 2 -39 6 -53 7 -28 23 -188 26 -271 2 -30 8 -73 15 -97 7 -23 11 -49
8 -56 -3 -8 0 -17 5 -21 6 -3 9 -10 6 -15 -3 -4 2 -42 11 -84 11 -55 12 -80 5
-95 -14 -25 -14 -34 0 -25 8 4 9 0 4 -15 -3 -12 -2 -21 4 -21 5 0 13 -24 16
-53 9 -68 14 -76 45 -70 19 3 26 11 28 30 1 14 7 32 14 40 6 7 11 27 10 43 -1
28 38 80 60 80 12 0 98 72 98 82 0 5 8 27 19 51 40 92 43 101 32 105 -6 2 -11
19 -11 37 0 22 -9 43 -24 60 -14 15 -26 41 -28 58 -2 20 -9 32 -18 33 -9 0
-10 -1 -2 -3 27 -10 9 -23 -31 -23 -30 0 -48 -6 -60 -20 -9 -11 -22 -20 -27
-20 -6 0 2 11 17 24 26 22 26 25 9 32 -11 4 -21 2 -27 -7 -7 -11 -9 -11 -9 3
0 10 13 24 30 33 37 19 40 19 40 -5 0 -11 6 -20 13 -20 11 0 13 14 8 63 -1 12
-34 4 -46 -10 -5 -7 -23 -15 -40 -19 l-30 -5 0 71 c0 40 1 67 3 61 2 -6 8 -8
13 -5 6 3 3 16 -6 31 -25 38 -31 127 -11 158 9 14 12 25 6 25 -5 0 -10 16 -10
35 0 21 5 35 13 35 9 0 9 2 0 8 -7 4 -11 26 -10 52 2 39 5 45 22 43 11 -1 15
0 8 3 -7 3 -9 12 -6 20 3 8 0 20 -6 28 -9 11 -3 14 36 14 42 1 62 12 63 36 0
5 -6 4 -12 -2 -14 -11 -72 -11 -84 1 -4 4 7 7 24 7 17 0 34 5 37 10 3 6 -1 10
-9 10 -8 0 -18 5 -22 12 -4 7 -3 8 5 4 6 -4 19 -2 27 5 14 12 14 14 -3 20 -14
6 -12 8 10 8 20 1 30 8 37 27 6 14 8 30 4 35 -3 5 12 17 33 26 34 14 36 17 18
24 -19 7 -19 8 3 8 13 1 22 7 22 17 0 11 6 14 22 9 17 -6 20 -4 15 9 -4 9 2
24 15 36 12 11 19 23 15 26 -4 4 -2 13 4 21 9 11 -1 13 -55 13 -36 0 -66 3
-66 8 1 14 36 82 41 78 3 -3 5 3 6 12 5 51 25 138 38 163 8 15 15 34 15 42 0
7 10 24 22 36 20 22 20 24 3 33 -9 6 -13 13 -9 17 5 3 17 22 27 41 10 19 24
46 32 60 13 23 13 26 -6 34 -18 9 -23 29 -6 26 10 -1 47 45 47 59 0 6 -7 8
-15 5 -9 -4 -15 0 -15 10 0 9 -6 16 -14 16 -7 0 -19 7 -26 15 -10 12 -9 18 4
31 9 9 14 24 11 34 -3 11 0 20 10 24 12 4 14 15 9 48 -7 50 -6 107 3 121 10
16 12 87 2 87 -14 0 -11 28 4 33 8 4 9 8 1 14 -31 23 -38 61 -39 196 -1 76 2
140 6 142 9 6 -13 129 -43 250 -14 55 -37 150 -52 210 -35 148 -90 282 -158
382 -15 23 -28 45 -28 50 0 4 -17 33 -38 63 -21 30 -49 75 -63 100 -13 25 -27
47 -31 50 -15 11 -118 173 -113 178 2 3 -10 22 -28 43 -57 67 -77 97 -89 131
-6 18 -22 44 -35 57 -13 13 -26 34 -29 46 -3 12 -20 30 -38 41 -18 10 -52 42
-76 69 -66 78 -109 129 -125 146 -8 9 -15 21 -15 28 0 6 -7 28 -16 49 -13 30
-17 34 -23 19 -6 -17 -11 -15 -45 16 -22 21 -35 40 -31 47 5 7 0 11 -11 10
-32 -4 -38 -1 -102 40 -33 22 -63 40 -65 40 -3 0 -20 6 -38 14 -19 8 -38 15
-44 16 -5 1 -19 9 -30 19 -11 10 -28 21 -38 24 -10 4 -51 27 -92 52 -41 25
-78 45 -82 45 -14 0 -132 62 -143 75 -7 8 -20 15 -30 15 -10 0 -43 13 -75 30
-31 16 -61 29 -68 27 -6 -1 -11 3 -12 8 -1 15 -15 35 -25 35 -5 0 -7 -7 -4
-15 8 -19 8 -19 -80 5 -40 10 -101 35 -135 55 -35 19 -67 35 -71 35 -5 0 -12
5 -16 12 -5 8 5 9 35 5 48 -6 49 -1 4 12 -17 5 -37 5 -47 -1 -12 -7 -16 -6
-14 4 2 9 -7 12 -31 10 -28 -3 -33 -1 -27 13 5 13 2 15 -14 10 -12 -4 -20 -2
-20 5 0 8 -10 10 -27 7 -15 -3 -35 -1 -43 3 -9 5 -44 11 -78 14 -34 3 -71 10
-82 16 -12 7 -21 7 -25 0 -3 -5 -1 -10 4 -10 6 0 11 -5 11 -11 0 -7 -8 -9 -22
-4 -13 4 -32 8 -43 9 -11 1 -29 7 -40 14 -18 12 -18 13 8 7 19 -4 26 -2 22 5
-3 5 -18 10 -33 11 -35 0 -133 22 -149 32 -7 4 -22 5 -35 2 -13 -3 -44 -2 -71
3 -26 5 -50 6 -52 1 -3 -4 -13 -8 -23 -8 -9 0 -55 -3 -102 -6 -112 -9 -119 -9
-139 9 -10 9 -23 16 -29 16 -6 0 -9 7 -5 16 5 13 2 15 -15 10 -13 -4 -31 -1
-46 9 -32 22 -91 25 -146 8z m-594 -2124 c32 -6 73 -17 90 -24 17 -7 58 -16
92 -20 39 -4 63 -12 66 -21 5 -12 10 -13 27 -3 16 8 20 8 14 -1 -13 -20 -57
-32 -67 -18 -6 9 -7 6 -4 -8 5 -16 -2 -25 -34 -43 -47 -26 -51 -34 -12 -25 15
4 24 3 19 -1 -12 -14 -109 -16 -162 -4 -38 9 -111 44 -131 63 -1 0 -5 11 -8
24 -7 20 -4 22 28 22 20 0 36 5 36 11 0 5 -8 9 -17 8 -40 -4 -63 2 -63 15 0
13 27 31 43 28 4 -1 7 6 7 16 0 12 3 13 8 5 5 -7 35 -18 68 -24z"/>
<path d="M3720 6079 c-87 -17 -95 -20 -79 -30 12 -7 12 -9 -2 -9 -9 0 -35 -13
-57 -30 -23 -16 -46 -30 -51 -30 -21 0 -133 -116 -154 -159 -12 -25 -28 -45
-34 -44 -9 2 -12 -8 -9 -30 2 -17 -1 -38 -6 -44 -7 -9 -7 -13 0 -13 5 0 15 7
22 15 7 8 9 15 5 15 -4 0 -2 7 5 15 7 8 9 15 5 15 -5 0 0 9 10 20 10 11 29 20
42 20 12 0 23 5 23 11 0 7 17 9 53 4 61 -8 97 -24 55 -25 -15 0 -30 -4 -33
-10 -3 -5 -16 -11 -28 -11 -20 -1 -20 -2 -2 -6 26 -6 44 -23 25 -23 -22 0
-143 -64 -140 -74 1 -5 -4 -12 -11 -17 -8 -4 -10 -12 -5 -16 5 -4 11 -2 13 5
3 6 11 12 19 12 9 0 12 -5 9 -11 -11 -17 67 1 94 22 16 13 19 19 9 19 -9 0
-21 -7 -28 -15 -14 -17 -65 -21 -55 -5 3 6 15 10 26 10 11 0 22 7 25 15 4 9
20 16 38 16 l31 1 -30 7 c-50 11 -11 23 53 17 57 -6 53 1 -13 20 -16 5 -28 14
-25 19 6 11 10 11 60 0 31 -7 33 -6 21 9 -7 9 -12 16 -10 17 2 0 13 3 24 5 11
3 56 5 100 6 55 0 73 3 58 9 -42 15 -24 22 40 14 34 -4 76 -9 92 -11 17 -1 46
-8 65 -13 19 -6 36 -7 38 -2 1 4 14 6 29 3 l26 -5 -24 -14 c-22 -12 -16 -13
56 -9 44 3 89 8 100 11 16 6 17 5 5 -4 -13 -9 -13 -11 0 -12 8 -1 18 -1 21 -1
14 2 157 -36 176 -47 16 -8 23 -8 26 2 4 9 8 9 15 -2 5 -7 16 -11 23 -9 8 3
30 0 49 -7 46 -15 81 -12 92 9 5 9 13 16 19 16 5 0 2 -12 -8 -26 -17 -26 -17
-27 5 -20 15 5 22 3 22 -5 0 -7 3 -9 6 -6 4 4 1 13 -6 22 -18 21 0 18 30 -5
27 -21 66 -27 54 -9 -3 6 4 4 17 -4 13 -8 39 -15 58 -15 38 -1 35 9 -4 14 -14
1 -32 8 -40 14 -19 15 -21 37 -2 23 16 -13 91 -23 106 -14 7 5 9 15 4 27 -9
24 -29 45 -36 37 -9 -8 -39 25 -32 36 3 5 -5 11 -17 13 -13 2 -22 9 -20 17 1
7 -7 15 -18 18 -11 3 -18 9 -15 13 3 5 -30 11 -72 15 -43 3 -88 10 -101 16
-13 5 -34 9 -47 9 -14 0 -25 4 -25 8 0 5 -26 10 -57 11 -31 1 -65 7 -75 12
-10 6 -26 9 -36 8 -9 -1 -28 -1 -41 0 -28 1 -19 16 14 24 13 3 9 5 -12 6 -22
1 -32 -4 -35 -16 -3 -15 -4 -15 -19 0 -11 11 -44 18 -105 23 -58 5 -82 10 -69
15 13 5 15 8 5 8 -13 1 -13 2 0 12 11 8 3 9 -30 4 -63 -10 -165 -23 -230 -29
l-55 -6 65 15 c36 8 90 20 120 27 l55 12 -40 6 c-39 6 -39 7 -15 17 22 10 23
12 7 18 -10 4 -36 2 -57 -5 -21 -7 -45 -10 -54 -7 -9 4 -37 0 -63 -8 -56 -17
-83 -19 -83 -5 0 6 19 11 43 11 39 1 40 2 12 9 -29 7 -29 8 10 10 22 1 51 6
65 10 24 8 24 8 -5 8 -16 0 -50 -4 -75 -9z"/>
<path d="M6970 6050 c-11 -7 -6 -10 20 -11 19 0 44 -4 55 -9 15 -6 6 -9 -35
-10 l-55 -2 54 -12 c30 -6 56 -16 58 -22 5 -14 -92 -11 -140 5 -21 7 -41 10
-44 7 -4 -3 -1 -6 5 -6 7 0 12 -4 12 -9 0 -6 -17 -8 -37 -5 -30 3 -34 2 -18
-6 14 -7 -5 -9 -70 -6 -49 2 -79 0 -65 -4 86 -24 91 -42 8 -28 -57 9 -98 4
-98 -13 0 -6 25 -8 70 -5 39 2 70 0 70 -5 0 -11 -9 -12 -85 -9 -33 1 -68 6
-77 11 -11 6 -19 5 -24 -3 -4 -6 -3 -8 4 -4 6 3 13 2 17 -4 4 -6 -15 -10 -52
-11 -32 0 -94 -5 -138 -10 -44 -6 -109 -13 -145 -15 -36 -1 -77 -5 -92 -8 -16
-3 -28 -1 -28 4 0 19 -28 10 -60 -20 -18 -16 -37 -27 -43 -23 -6 3 -7 1 -3 -5
4 -7 1 -12 -6 -12 -7 0 -19 -10 -27 -22 -14 -22 -14 -22 12 -5 36 23 46 21 19
-3 -12 -11 -26 -20 -32 -20 -5 0 -10 -5 -10 -11 0 -5 5 -7 10 -4 6 3 10 2 10
-3 0 -6 -7 -13 -16 -16 -9 -4 -14 -9 -11 -12 3 -3 16 0 29 8 12 7 30 13 38 14
8 1 24 5 35 9 16 7 18 6 7 -6 -6 -7 -23 -13 -37 -14 -14 0 -24 -4 -23 -8 2 -5
-5 -13 -15 -18 -9 -6 -15 -14 -12 -20 4 -5 -1 -9 -9 -9 -9 0 -16 -4 -16 -8 0
-5 -10 -14 -22 -21 -23 -11 -23 -11 1 -5 14 4 47 21 75 39 28 17 67 35 86 38
l35 6 -33 -15 c-18 -8 -31 -18 -28 -23 3 -5 -8 -11 -26 -15 -17 -3 -36 -13
-42 -20 -6 -8 -33 -26 -61 -40 -27 -14 -42 -26 -32 -26 9 0 36 12 60 27 34 22
54 27 104 28 34 0 56 4 50 8 -7 5 7 5 31 2 27 -4 48 -3 56 4 8 7 25 9 41 5 20
-5 24 -9 13 -16 -24 -16 101 8 182 36 81 27 150 45 163 42 6 -1 8 -1 4 2 -10
5 39 32 57 32 6 -1 0 -7 -14 -15 -32 -18 -4 -20 31 -1 32 16 111 32 89 17 -10
-7 23 -9 105 -5 164 7 163 7 183 -2 12 -5 -5 -11 -53 -20 l-70 -13 65 6 c36 3
74 7 84 9 26 5 41 -6 25 -18 -9 -6 0 -8 28 -6 23 1 45 -1 48 -4 9 -9 66 12 60
22 -3 4 1 8 8 7 56 -2 60 1 53 44 -9 55 -50 134 -82 156 -14 10 -34 25 -43 33
-31 29 -88 60 -109 60 -14 0 -20 5 -16 14 4 10 -6 18 -33 25 -47 13 -64 13
-83 1z"/>
<path d="M8332 5693 c-21 -31 -52 -88 -52 -98 0 -3 4 -4 9 -1 5 3 11 -6 14
-20 3 -17 -1 -28 -10 -31 -11 -4 -5 -10 17 -20 32 -13 33 -14 14 -34 -14 -15
-15 -20 -4 -17 10 2 17 -8 20 -32 8 -44 30 -100 40 -100 4 0 5 11 2 25 -2 14
-8 25 -13 25 -5 0 -9 9 -9 20 0 32 27 23 34 -11 11 -57 8 -89 -9 -83 -11 5
-15 -1 -15 -19 0 -20 5 -25 20 -24 20 1 27 17 29 62 0 11 4 51 7 88 4 45 3 72
-5 80 -6 6 -11 19 -11 28 0 10 -7 25 -16 34 -15 14 -15 18 0 40 9 13 16 30 15
37 0 7 -5 4 -10 -7 -10 -21 -9 -11 7 63 4 21 3 24 -5 12 -7 -10 -11 -11 -11
-2 0 22 -38 12 -58 -15z"/>
<path d="M3965 5589 c-21 -5 -43 -15 -47 -22 -6 -9 -10 -9 -16 1 -11 17 -62 5
-62 -14 0 -8 -7 -14 -16 -14 -8 0 -12 5 -9 10 8 12 -17 13 -30 1 -6 -4 -24
-13 -41 -19 -55 -18 -132 -80 -139 -112 -6 -26 -11 -30 -38 -30 -30 -1 -31 -1
-13 -15 11 -8 29 -15 40 -15 18 -1 16 -4 -9 -17 -18 -10 -25 -18 -17 -21 7 -2
19 2 28 8 12 11 13 10 8 -4 -4 -9 -17 -16 -34 -16 -45 0 -47 -20 -3 -21 21 -1
59 -3 86 -5 26 -2 47 1 47 6 0 6 -9 10 -19 10 -22 0 -40 20 -19 21 13 0 30 19
84 87 14 17 30 30 34 27 5 -3 20 5 33 17 30 27 199 83 223 74 14 -6 15 -9 3
-24 -64 -79 -48 -201 35 -274 97 -87 253 -50 317 74 23 45 25 122 4 171 -8 20
-15 39 -15 42 0 11 28 4 39 -9 7 -8 22 -17 35 -20 26 -6 80 -53 88 -75 3 -12
6 -12 11 2 4 12 -9 31 -46 67 -29 27 -47 50 -41 50 5 0 15 -5 21 -11 6 -6 19
-9 29 -6 26 6 -46 38 -79 35 -13 -1 -40 6 -59 15 -67 32 -321 48 -413 26z"/>
<path d="M6824 5562 c4 -7 14 -12 22 -12 7 0 19 -8 25 -18 8 -13 20 -17 36
-14 16 3 23 0 21 -8 -2 -7 11 -17 30 -22 56 -15 35 -45 -24 -34 -20 4 -34 13
-34 21 0 10 -10 15 -29 15 -17 0 -33 5 -36 10 -4 6 -15 8 -25 5 -9 -3 -30 0
-46 6 -16 6 -54 13 -84 15 -30 1 -79 5 -108 8 -31 3 -50 1 -47 -5 4 -5 -1 -9
-10 -9 -9 0 -14 4 -11 9 7 11 -14 20 -31 14 -7 -3 -13 -12 -14 -21 0 -11 -2
-12 -6 -4 -5 14 -33 17 -33 3 0 -8 -39 -19 -86 -24 -12 -1 -31 -10 -41 -19
-11 -10 -24 -18 -29 -18 -5 0 -17 -8 -25 -17 -25 -27 -58 -53 -69 -53 -6 0
-10 -4 -10 -10 0 -5 -7 -10 -16 -10 -8 0 -12 -4 -9 -10 3 -5 1 -10 -5 -10 -6
0 -41 -29 -77 -64 -75 -74 -80 -99 -19 -104 25 -2 36 0 31 7 -3 6 -19 11 -36
11 -16 0 -29 3 -29 8 0 9 31 37 45 39 6 1 11 10 13 20 2 10 21 29 43 43 23 14
53 37 67 52 15 15 31 28 36 28 4 0 25 14 46 30 21 17 47 30 59 30 25 0 25 0 6
-36 -29 -56 -11 -157 37 -215 63 -75 177 -92 260 -40 34 22 52 43 72 85 37 77
36 121 -2 190 -18 31 -29 56 -26 56 4 0 49 -13 100 -30 93 -30 169 -71 156
-85 -4 -5 -1 -5 6 -1 17 10 62 -20 62 -42 0 -9 16 -30 35 -45 20 -16 32 -33
29 -39 -4 -6 -1 -9 7 -6 8 3 29 -1 47 -9 33 -14 45 -1 15 16 -10 5 -14 13 -9
18 5 4 11 2 13 -4 3 -7 16 -13 29 -13 24 0 24 1 9 24 -12 17 -13 26 -5 31 8 5
5 12 -9 21 -12 9 -18 21 -14 30 9 23 -128 151 -192 180 -63 29 -121 42 -111
26z"/>
<path d="M5605 5339 c28 -5 63 -10 78 -11 31 -1 41 -15 52 -73 21 -109 17
-116 -20 -38 -29 58 -45 38 -18 -23 9 -21 16 -46 14 -54 -1 -12 0 -12 7 -1 6
8 12 9 16 3 3 -6 2 -14 -4 -17 -27 -16 24 -133 58 -134 25 -1 51 19 46 34 -4
8 -10 12 -15 9 -8 -5 -13 9 -10 29 0 4 -6 7 -14 7 -8 0 -15 5 -15 10 0 6 4 10
8 10 10 0 7 33 -12 138 -8 46 -13 89 -10 96 3 9 -6 13 -28 13 -18 0 -67 3
-108 6 -67 6 -70 5 -25 -4z"/>
<path d="M4950 5330 l-45 -7 57 -1 c61 -2 77 -12 52 -33 -27 -22 -57 -90 -45
-102 8 -8 13 -1 17 21 4 18 11 35 17 39 6 4 8 -3 4 -18 -4 -13 -16 -62 -28
-109 -23 -92 -35 -113 -45 -86 -4 11 -1 21 7 26 7 5 11 12 7 15 -3 4 -16 -3
-27 -14 -26 -26 -28 -26 -26 -3 2 29 15 42 42 42 21 0 23 3 14 14 -10 11 -10
20 0 38 12 22 11 23 -8 6 -11 -10 -27 -18 -36 -18 -20 0 -44 -47 -39 -76 4
-26 35 -57 60 -59 9 -1 25 -5 34 -9 25 -11 55 10 74 50 13 28 14 38 5 43 -10
6 -9 19 3 57 8 27 15 41 15 32 1 -25 18 -22 25 5 9 35 8 38 -19 31 -19 -5 -25
-2 -25 11 0 9 4 14 9 11 13 -9 23 25 11 39 -10 12 -4 25 13 25 5 0 7 -7 3 -15
-10 -28 13 -15 29 15 l16 30 -43 0 c-24 0 -52 2 -63 4 -11 2 -40 0 -65 -4z"/>
<path d="M1 2418 l-1 -2418 2308 1 c2292 1 2306 1 2172 20 -333 45 -864 171
-907 215 -8 8 -19 31 -25 51 -6 21 -18 44 -27 53 -30 26 -52 81 -40 96 8 10 0
25 -35 61 -34 35 -46 56 -46 78 0 17 -11 46 -25 65 -27 37 -30 45 -15 35 12
-8 2 20 -21 59 -10 16 -15 36 -11 44 3 9 1 13 -5 9 -13 -8 -33 35 -33 70 0 14
-8 40 -19 57 -10 17 -22 49 -26 71 -4 21 -13 52 -21 67 -8 15 -14 38 -14 51 0
13 -7 32 -15 43 -8 10 -15 32 -15 47 0 15 -7 42 -16 58 -8 17 -14 48 -13 70 2
22 -2 43 -7 47 -6 4 -14 28 -18 55 -4 26 -12 47 -18 47 -5 0 -7 7 -4 16 4 10
2 13 -6 8 -8 -5 -9 5 -5 34 3 23 2 42 -3 42 -19 0 -40 105 -60 300 -16 163
-24 264 -22 298 5 81 -30 44 -41 -44 -4 -27 -9 -67 -13 -89 -4 -30 -3 -36 5
-25 6 8 11 26 11 40 0 14 5 32 11 40 15 22 4 -182 -14 -256 -8 -32 -17 -113
-20 -179 -3 -75 -1 -105 4 -80 4 22 8 72 9 110 0 74 37 219 41 160 2 -37 1
-53 -9 -137 -5 -38 -5 -68 -1 -68 4 0 10 15 12 33 3 28 4 27 5 -10 1 -25 -3
-43 -10 -46 -10 -3 -7 -15 9 -48 16 -32 23 -70 27 -144 9 -152 17 -215 32
-269 8 -27 14 -74 14 -103 0 -38 13 -89 45 -177 25 -69 45 -131 45 -140 0 -8
5 -18 11 -21 9 -6 129 -248 184 -372 l24 -52 -67 25 c-37 15 -75 28 -84 31
-12 4 -18 16 -19 37 0 17 -4 40 -9 51 -6 13 -7 3 -3 -28 l6 -48 -44 17 c-84
32 -452 214 -576 285 -122 70 -477 300 -486 316 -3 4 8 64 24 132 15 69 26
128 23 133 -3 4 -1 8 4 8 6 0 13 17 17 37 4 20 17 58 30 84 26 50 85 275 85
322 0 15 5 27 10 27 6 0 10 7 10 17 0 14 -2 14 -21 -3 -14 -13 -19 -27 -17
-46 3 -16 0 -28 -5 -28 -5 0 -7 -9 -4 -19 5 -20 -14 -43 -43 -54 -12 -4 -11
-6 3 -6 25 -1 21 -19 -5 -23 -18 -2 -23 -9 -21 -31 1 -17 -3 -27 -12 -27 -15
0 -16 -75 -2 -98 9 -13 1 -32 -14 -32 -5 0 -9 5 -9 11 0 5 5 7 10 4 6 -3 10
-1 10 5 0 20 -25 4 -26 -16 0 -24 -14 -57 -28 -66 -6 -4 -5 -12 3 -22 13 -16
6 -56 -10 -56 -5 0 -9 -7 -9 -16 0 -8 5 -12 10 -9 7 4 8 -3 4 -22 -4 -15 -11
-29 -16 -31 -4 -2 -8 -13 -8 -24 0 -13 -5 -18 -14 -15 -9 4 -13 1 -11 -6 2 -7
6 -31 9 -54 6 -38 4 -42 -14 -38 -63 12 -479 381 -691 612 -224 245 -364 423
-533 681 -472 720 -752 1523 -831 2387 -11 118 -13 -240 -14 -2277z"/>
<path d="M10287 4453 c-79 -624 -314 -1315 -638 -1880 -178 -310 -439 -668
-662 -908 -48 -51 -56 -57 -57 -37 0 12 -4 22 -9 22 -13 0 -22 -28 -11 -35 13
-8 13 -25 -1 -25 -5 0 -8 4 -5 9 3 5 -4 11 -17 15 -12 3 -23 1 -25 -4 -2 -6
-11 -10 -19 -10 -12 0 -13 -3 -3 -15 6 -8 9 -19 5 -26 -6 -8 -10 -7 -17 2 -6
10 -7 6 -3 -11 4 -14 7 -27 7 -30 0 -20 -5 -26 -22 -27 -16 -1 -20 2 -15 18 8
23 2 24 -30 3 -14 -9 -25 -12 -25 -6 0 6 5 14 10 17 6 3 10 10 10 16 0 5 -4 9
-10 9 -5 0 -10 -6 -10 -14 0 -8 -4 -16 -9 -18 -4 -1 -11 -14 -15 -28 -5 -17
-4 -21 2 -11 6 8 12 9 16 3 3 -5 -1 -15 -9 -22 -8 -7 -13 -24 -11 -41 3 -26
-7 -39 -88 -112 -50 -46 -111 -100 -136 -121 -45 -37 -45 -37 -52 -14 l-6 23
-1 -23 c-1 -14 -5 -21 -12 -16 -6 3 -8 17 -5 30 4 15 2 24 -5 24 -7 0 -10 13
-7 34 2 19 0 32 -4 30 -4 -3 -8 2 -8 10 0 9 5 16 11 16 8 0 8 4 0 14 -10 11
-10 20 -1 37 10 17 9 23 -1 30 -8 5 -9 9 -4 9 6 0 2 7 -8 14 -18 14 -18 15 0
25 17 10 17 10 -2 11 -19 1 -19 2 -1 9 18 7 18 8 -5 25 -19 13 -21 18 -11 25
11 7 10 12 -7 28 -14 13 -19 26 -15 37 4 9 0 24 -9 34 -8 9 -17 32 -20 49 -6
38 -43 88 -72 98 -13 4 -16 8 -7 12 14 6 16 33 2 33 -5 0 -10 6 -10 13 0 6
-14 18 -30 26 -35 15 -35 33 -1 41 22 5 22 6 4 21 -10 9 -29 22 -42 29 -22 12
-24 11 -17 -11 3 -13 9 -37 12 -54 4 -16 12 -49 20 -73 19 -59 54 -218 60
-270 2 -24 15 -81 29 -127 28 -96 34 -137 42 -256 l5 -85 -88 -66 c-116 -86
-351 -239 -487 -317 -250 -144 -626 -315 -886 -402 -79 -27 -85 -28 -97 -11
-12 16 -12 16 -11 -2 2 -15 -10 -24 -47 -38 -27 -10 -50 -17 -53 -15 -2 3 12
24 32 48 45 56 43 55 85 89 33 27 34 29 17 42 -17 12 -17 16 -4 27 13 10 16 9
22 -8 4 -13 12 -18 22 -14 13 5 13 2 -2 -26 -19 -38 -12 -55 11 -23 17 25 38
19 31 -9 -6 -21 12 -21 30 1 15 18 16 30 3 30 -5 0 -10 -8 -11 -17 0 -14 -2
-15 -6 -3 -3 8 -13 21 -22 29 -14 12 -14 13 7 8 13 -3 20 -1 16 5 -3 5 2 16
12 24 18 15 18 15 -6 9 -14 -3 -38 -8 -54 -11 l-30 -6 29 24 c63 51 92 91 114
151 12 35 37 89 56 120 19 32 38 69 41 82 3 13 12 29 20 36 8 6 14 16 14 21 0
5 20 33 44 61 24 29 69 91 99 139 31 49 74 107 95 130 21 24 45 59 52 78 16
43 58 128 93 194 15 26 24 53 20 59 -4 6 -1 7 7 2 10 -6 12 -4 7 7 -7 19 19
125 39 155 8 12 14 33 14 47 0 41 18 40 23 -1 3 -21 3 -3 1 40 -3 58 -1 77 8
77 9 0 14 22 16 73 1 40 6 86 11 103 7 27 8 26 14 -21 4 -28 3 -75 -2 -105
-15 -86 -22 -270 -10 -240 6 14 12 66 14 115 15 347 21 455 27 460 9 9 23
-179 19 -267 -2 -56 1 -78 10 -78 9 0 10 35 5 147 -3 82 -5 182 -4 223 1 41 1
100 1 130 -3 103 16 27 46 -180 8 -57 8 -51 5 49 -3 63 -7 124 -9 135 -3 12
-7 51 -9 88 -3 36 -12 80 -20 97 -9 16 -16 36 -16 44 0 7 -5 18 -12 25 -6 6
-13 24 -14 39 -2 23 -1 25 7 11 5 -10 8 -19 7 -21 -2 -1 7 -14 20 -27 13 -14
37 -69 53 -123 17 -54 33 -96 36 -94 9 9 -19 133 -44 191 -13 33 -45 95 -71
138 -34 60 -42 82 -33 88 10 5 8 11 -8 22 -20 14 -20 16 -4 22 10 4 19 3 21
-3 7 -21 105 -162 109 -157 3 2 -15 37 -40 78 -24 40 -52 88 -61 106 -18 36
-37 41 -57 15 -12 -15 -12 -16 3 -10 10 3 20 2 23 -3 6 -9 -11 -14 -42 -13 -7
1 -13 -8 -13 -19 0 -23 -68 -166 -93 -192 -9 -11 -15 -28 -11 -38 3 -10 2 -18
-3 -18 -10 0 -33 -48 -33 -69 0 -8 -3 -11 -7 -8 -12 13 -43 -26 -43 -53 0 -15
-10 -35 -21 -46 -22 -19 -22 -19 -15 9 7 29 -8 38 -18 10 -16 -48 -35 -87 -35
-77 -1 7 -7 14 -14 17 -9 3 -12 -5 -9 -30 4 -33 3 -34 -16 -24 -25 14 -35 14
-27 1 3 -5 -6 -16 -19 -25 -14 -9 -28 -26 -32 -37 -4 -12 -11 -17 -21 -14 -12
5 -14 1 -11 -19 3 -13 1 -22 -3 -19 -5 3 -9 -6 -9 -20 0 -25 -12 -41 -24 -29
-3 3 -2 11 3 17 5 6 5 20 0 31 -7 20 -8 20 -8 -1 -1 -33 -22 -85 -32 -78 -5 3
-9 -2 -9 -10 0 -9 -4 -16 -10 -16 -5 0 -10 -5 -10 -11 0 -5 5 -7 10 -4 18 11
11 -11 -9 -29 -11 -10 -21 -13 -25 -7 -7 11 13 62 29 73 6 5 5 8 -3 8 -7 0
-17 -10 -21 -22 l-9 -23 -11 25 c-11 24 -11 23 -7 -7 5 -27 1 -36 -18 -48 -13
-9 -27 -26 -30 -38 -5 -17 -8 -19 -15 -8 -11 16 -23 -1 -16 -21 3 -8 0 -20 -8
-26 -11 -9 -18 -8 -32 8 -20 22 -35 26 -35 9 0 -5 4 -8 9 -4 6 3 15 -3 20 -14
14 -26 14 -31 -4 -31 -11 0 -15 -12 -15 -44 0 -47 -22 -80 -34 -50 -8 21 -8
26 3 20 5 -3 12 1 15 10 10 25 0 28 -22 6 -14 -14 -18 -28 -14 -47 4 -23 2
-27 -12 -22 -9 4 -16 2 -16 -4 0 -6 -7 -6 -20 1 -17 9 -20 8 -20 -12 0 -23
-16 -57 -22 -48 -2 3 -8 19 -15 37 -8 24 -8 33 1 36 7 3 5 10 -6 23 -14 16
-15 27 -8 59 10 42 5 58 -11 35 -8 -13 -10 -13 -19 0 -5 8 -10 21 -10 28 0 8
-5 10 -12 6 -8 -5 -9 -1 -4 12 7 19 7 19 -11 0 -14 -14 -15 -20 -5 -23 10 -4
8 -11 -8 -28 -18 -20 -19 -23 -5 -29 10 -4 14 -2 9 5 -4 7 -1 10 7 7 18 -6 20
-64 4 -78 -16 -13 -35 15 -35 49 0 12 -4 21 -9 21 -4 0 -6 12 -3 26 3 19 1 25
-7 20 -6 -4 -11 -15 -11 -24 -1 -15 -3 -14 -16 3 -13 18 -14 17 -8 -13 4 -21
3 -32 -5 -32 -6 0 -14 14 -17 30 -4 17 -10 30 -14 30 -13 0 -19 -39 -6 -44 7
-3 7 -5 -1 -5 -7 -1 -13 -10 -13 -21 0 -24 -20 -70 -31 -70 -4 0 -9 17 -11 37
-4 42 -13 30 -23 -30 -5 -31 -12 -40 -36 -49 -16 -5 -26 -14 -23 -19 6 -11
-17 -69 -28 -69 -5 0 -8 -10 -9 -22 0 -22 -1 -22 -9 -3 -8 19 -8 19 -17 -4 -8
-20 -11 -21 -16 -8 -3 9 -2 19 3 22 6 4 10 14 9 23 0 12 -3 10 -10 -6 -5 -14
-13 -20 -21 -16 -8 5 -9 2 -5 -10 8 -21 -2 -66 -14 -66 -5 0 -14 11 -19 24
-13 35 -27 39 -22 7 2 -16 -1 -32 -7 -35 -6 -4 -11 -2 -11 3 0 6 -4 11 -10 11
-5 0 -7 -7 -4 -15 5 -13 -16 -45 -30 -45 -11 0 -6 36 7 49 10 11 8 11 -10 2
-13 -6 -23 -16 -23 -22 0 -13 -19 -33 -49 -48 -27 -15 -38 -9 -16 9 17 14 20
46 5 55 -5 3 -10 -3 -10 -13 0 -11 -14 -34 -30 -52 -33 -35 -53 -36 -24 -1 18
20 28 64 12 55 -4 -3 -8 -11 -8 -19 0 -7 -7 -15 -15 -18 -11 -5 -13 1 -9 26 4
24 3 28 -5 17 -6 -8 -11 -22 -11 -31 0 -23 -32 -49 -37 -31 -3 6 -13 12 -23
12 -10 0 -21 6 -24 13 -3 6 -3 0 0 -15 5 -23 3 -28 -15 -28 -14 0 -19 -5 -15
-15 4 -8 10 -12 15 -9 5 3 9 1 9 -5 0 -6 -9 -15 -20 -21 -11 -6 -20 -17 -20
-25 0 -7 -5 -17 -12 -21 -8 -5 -9 3 -5 31 l6 37 -37 -6 c-20 -4 -46 -8 -57 -9
-13 -1 -20 -9 -20 -22 0 -15 -9 -21 -35 -25 -43 -8 -80 -30 -80 -48 0 -10 7
-12 26 -8 22 6 25 4 20 -9 -3 -9 -6 -21 -6 -27 0 -6 -11 -3 -24 6 -14 9 -32
13 -42 9 -14 -5 -15 -3 -5 15 6 11 11 22 11 24 0 8 -45 7 -55 -1 -20 -16 -63
-21 -68 -8 -4 9 -8 8 -17 -3 -9 -11 -13 -12 -17 -2 -5 13 -23 7 -23 -9 0 -6 4
-8 8 -5 4 2 14 1 22 -4 11 -7 9 -11 -12 -19 -30 -11 -43 -42 -30 -68 14 -25
18 -75 8 -91 -13 -22 2 -26 29 -8 15 10 25 12 25 5 0 -6 7 -9 15 -5 18 7 18 4
3 -29 -7 -15 -17 -24 -25 -21 -16 7 -61 -12 -87 -36 -34 -31 -46 -19 -14 12
17 17 27 34 24 38 -4 4 -15 -4 -25 -17 -19 -25 -58 -25 -53 0 2 10 -2 9 -11
-3 -8 -10 -21 -18 -30 -18 -9 0 -20 -8 -26 -17 -5 -10 -13 -15 -17 -11 -3 4
-15 3 -26 -3 -25 -13 -35 -4 -18 16 10 12 10 15 -4 15 -9 0 -16 -4 -16 -10 0
-5 -10 -8 -23 -6 -12 3 -26 5 -30 5 -4 1 -3 7 4 14 6 6 32 13 58 14 25 2 55 7
66 12 11 5 29 12 39 15 28 9 15 16 -35 18 -43 1 -79 26 -58 39 6 3 6 15 0 30
-5 13 -10 18 -10 10 -1 -8 -9 -20 -18 -27 -17 -13 -16 -15 6 -33 18 -14 21
-20 10 -24 -8 -3 1 -6 20 -6 38 -1 35 -13 -4 -17 -19 -2 -26 3 -31 22 -7 29
-12 29 -44 4 -36 -28 -48 -25 -16 5 14 13 26 29 26 35 0 6 -10 2 -22 -10 -37
-34 -44 -22 -8 15 19 19 28 35 21 35 -8 0 -29 -17 -49 -37 -36 -39 -62 -50
-62 -28 0 7 -10 15 -22 18 -21 6 -21 7 -3 27 20 22 35 19 17 -3 -9 -10 -9 -14
1 -14 7 0 14 10 15 21 0 11 6 22 12 24 5 2 10 10 10 17 0 8 9 17 20 20 15 5
20 15 19 38 0 18 -3 26 -6 20 -2 -7 -12 -13 -20 -13 -13 0 -13 -3 -3 -15 10
-12 10 -15 -1 -15 -8 0 -31 -20 -52 -45 -38 -44 -57 -56 -57 -35 0 6 11 15 25
22 13 6 22 15 19 19 -9 14 -21 10 -48 -15 -26 -24 -69 -26 -83 -3 -3 5 -1 7 4
4 6 -4 16 0 23 8 7 8 25 15 40 15 15 0 34 7 41 17 13 15 11 16 -12 10 -23 -6
-26 -4 -25 16 1 17 7 21 26 19 29 -3 42 -20 34 -44 -7 -24 13 -23 26 1 7 13 7
22 0 26 -5 3 -10 11 -10 16 0 6 5 7 12 3 8 -5 9 -2 5 10 -4 10 -7 19 -7 20 0
2 -12 1 -27 -2 -25 -5 -26 -3 -15 10 14 18 7 68 -10 68 -6 0 -8 -9 -5 -21 4
-16 3 -18 -9 -8 -9 7 -12 21 -8 38 4 20 3 23 -5 11 -9 -13 -13 -13 -28 3 -17
18 -17 19 10 42 36 32 35 52 -1 25 -16 -12 -38 -22 -50 -23 -12 -1 -21 -6 -19
-12 2 -5 11 -9 21 -7 20 4 22 -32 4 -71 -14 -29 -55 -40 -44 -11 3 8 2 12 -4
9 -14 -9 -12 9 2 23 7 7 9 12 4 12 -4 0 -15 -7 -24 -16 -12 -12 -17 -13 -20
-4 -2 6 1 17 7 23 6 6 11 15 11 20 0 5 -8 1 -17 -9 -17 -17 -18 -17 -21 0 -2
10 -10 15 -17 12 -8 -3 -18 7 -25 27 -7 22 -7 33 0 35 16 6 1 22 -21 22 -11 0
-17 -4 -14 -10 3 -5 -1 -10 -10 -10 -13 0 -16 6 -11 24 3 14 3 32 0 40 -8 21
-34 20 -34 -1 0 -15 -2 -14 -14 3 -8 10 -10 21 -5 22 15 6 10 22 -6 22 -9 0
-18 -12 -21 -30 -4 -16 -11 -30 -16 -30 -6 0 -8 14 -4 34 6 29 3 37 -14 46
-16 8 -25 7 -42 -5 -34 -23 -51 -19 -45 11 3 18 1 22 -6 15 -17 -17 -31 -13
-17 4 23 28 1 28 -35 1 -19 -15 -35 -23 -35 -17 0 5 4 11 10 13 14 4 19 66 6
71 -8 3 -7 10 2 26 11 19 10 21 -14 21 -24 0 -25 2 -13 17 13 15 11 16 -13 11
-16 -3 -28 -1 -28 4 0 5 -4 6 -10 3 -5 -3 -10 -1 -10 4 0 6 5 11 11 11 7 0 8
7 4 18 -4 9 -11 31 -15 47 -8 28 -9 29 -15 8 -4 -13 -11 -20 -16 -17 -5 3 -16
-2 -25 -10 -9 -9 -20 -14 -25 -10 -6 3 -21 -2 -34 -10 -14 -9 -25 -12 -25 -7
0 5 5 11 11 13 7 2 13 19 16 38 2 18 11 42 20 52 14 16 14 18 0 18 -9 0 -20
-15 -28 -37 -11 -34 -49 -87 -49 -68 0 4 -9 0 -20 -10 -11 -10 -17 -22 -14
-27 3 -5 -4 -20 -16 -33 -20 -22 -21 -25 -6 -31 21 -8 20 -20 -4 -51 -21 -27
-27 -15 -10 18 10 17 8 18 -15 9 -33 -12 -35 -12 -35 1 0 6 13 24 29 40 16 16
26 29 22 29 -5 0 -37 -19 -59 -36 -9 -6 -19 -74 -12 -74 5 0 10 5 12 12 7 21
25 -1 39 -46 11 -38 18 -45 50 -55 29 -9 37 -15 32 -28 -5 -13 -2 -15 12 -9
11 4 25 0 36 -10 22 -20 26 -42 4 -24 -13 10 -15 9 -15 -9 0 -11 -4 -21 -10
-21 -5 0 -10 5 -10 10 0 17 -29 11 -50 -10 -22 -22 -40 -26 -40 -10 0 6 7 10
16 10 8 0 13 4 9 9 -3 6 3 14 12 20 10 5 15 13 11 17 -4 4 -14 2 -21 -4 -14
-12 -27 -7 -27 9 0 5 7 6 15 3 9 -4 15 0 15 10 0 10 -6 13 -15 10 -9 -4 -15 0
-15 10 0 19 -16 22 -23 4 -3 -10 -7 -10 -19 -1 -8 7 -18 10 -21 6 -4 -3 -7 1
-7 11 0 13 5 16 23 11 21 -6 21 -6 3 9 -11 9 -25 16 -31 16 -5 0 -16 10 -24
21 -11 19 -11 21 4 16 9 -4 14 -3 10 3 -3 6 -16 10 -28 10 -19 1 -18 3 8 15
25 11 27 14 9 14 -12 1 -27 7 -33 15 -10 11 -8 17 6 26 16 9 15 10 -6 4 -17
-4 -21 -3 -16 6 5 8 -1 11 -21 8 -17 -2 -28 -8 -26 -15 1 -7 -3 -13 -9 -13 -6
0 -9 9 -6 20 3 11 1 23 -5 26 -5 3 -7 13 -4 21 4 10 2 13 -8 10 -8 -3 -17 -1
-19 6 -2 7 -2 3 1 -8 3 -11 4 -39 4 -62 -1 -33 2 -41 13 -36 8 3 27 2 43 -2
l27 -7 -30 -16 c-25 -13 -27 -17 -11 -20 10 -2 23 1 29 7 16 16 66 -34 61 -62
-4 -21 -4 -21 5 -2 8 18 10 18 16 3 4 -9 4 -22 0 -28 -6 -9 7 -14 28 -11 4 0
7 -6 7 -14 0 -8 -5 -15 -11 -15 -5 0 -7 -5 -4 -10 4 -6 10 -8 15 -5 5 3 19 -4
31 -16 15 -15 18 -24 10 -32 -21 -21 -11 -30 28 -23 30 4 43 1 61 -14 12 -11
20 -26 17 -34 -4 -9 0 -12 13 -9 21 6 82 -26 74 -39 -3 -4 -14 -8 -24 -8 -14
0 -18 -5 -13 -17 4 -11 8 -12 11 -5 4 13 56 15 86 3 18 -7 18 -8 3 -14 -9 -3
-24 -3 -34 0 -11 4 -14 3 -9 -5 5 -8 -1 -12 -16 -13 -22 0 -22 -1 -3 -9 28
-12 37 -12 30 0 -8 13 1 13 26 -1 13 -6 18 -17 15 -26 -4 -10 -2 -13 8 -10 16
6 96 -30 96 -44 0 -4 -8 -6 -17 -2 -10 3 -15 3 -11 -2 4 -4 3 -14 -3 -21 -8
-10 -1 -12 36 -11 41 2 53 -3 87 -32 30 -25 36 -36 26 -42 -9 -6 -9 -9 -1 -9
21 0 26 23 8 36 -10 8 -16 16 -13 20 3 3 15 -2 26 -11 15 -14 19 -27 16 -64
-3 -36 -2 -40 5 -21 5 14 9 20 10 14 1 -7 8 -15 17 -18 12 -5 15 -2 10 10 -5
14 -4 15 9 4 17 -14 21 -35 5 -25 -5 3 -10 2 -10 -4 0 -6 -7 -8 -15 -5 -20 8
-19 1 2 -22 26 -29 83 -67 83 -55 0 5 -13 19 -30 31 -36 25 -39 43 -7 39 12
-2 27 0 33 4 7 4 17 0 24 -8 6 -7 19 -11 28 -8 9 3 14 3 10 -2 -8 -9 9 -28 35
-38 9 -3 17 -11 17 -17 0 -5 12 -10 28 -9 16 0 21 3 12 6 -33 13 -40 49 -10
49 22 0 27 -11 8 -20 -7 -3 5 -4 27 -3 38 2 40 1 37 -25 -1 -16 2 -28 8 -28 5
0 10 7 10 16 0 23 44 14 48 -10 6 -30 24 -41 67 -43 25 -1 30 1 13 4 -31 5
-37 18 -13 27 8 3 15 0 15 -6 0 -7 4 -7 13 0 7 6 28 7 54 3 24 -5 40 -4 37 0
-12 19 18 7 42 -16 23 -23 23 -30 2 -26 -5 0 -8 -3 -8 -8 0 -5 11 -8 25 -7 14
0 25 6 25 12 0 6 7 17 15 24 13 10 15 9 15 -9 0 -23 10 -27 27 -10 8 8 17 7
32 -3 14 -8 24 -9 29 -3 4 6 27 12 52 13 25 2 50 7 55 11 33 26 84 8 71 -24
-3 -8 3 -17 15 -20 25 -8 39 2 15 11 -10 4 -16 18 -16 38 0 23 3 27 9 16 6 -8
7 -18 5 -22 -3 -5 6 -3 20 4 20 8 32 8 51 0 27 -12 78 -1 57 12 -19 12 -14 21
13 24 14 1 25 -3 25 -8 0 -6 -4 -10 -10 -10 -23 0 -8 -15 17 -17 15 0 29 -6
31 -12 2 -6 8 -8 13 -5 6 3 1 14 -11 24 -17 15 -18 19 -5 30 8 6 20 8 26 4 8
-5 10 -2 6 9 -3 9 0 18 9 21 11 4 13 -1 8 -22 -5 -25 -4 -25 9 -9 17 21 21 21
40 2 13 -13 16 -13 21 1 4 9 2 13 -5 8 -7 -4 -10 -1 -7 7 3 9 17 13 41 11 20
-2 37 1 37 6 0 5 9 12 21 15 15 4 19 2 15 -9 -3 -8 -1 -14 5 -14 5 0 14 11 19
25 7 17 17 25 34 25 13 0 27 7 30 17 6 14 8 14 21 -3 13 -18 14 -18 15 -1 0
19 40 68 40 50 0 -6 7 -14 16 -17 12 -4 14 -1 9 14 -7 23 10 28 19 5 6 -17 36
-21 36 -4 0 5 -4 7 -10 4 -5 -3 -10 1 -10 10 0 9 4 14 10 10 5 -3 18 3 30 15
21 21 50 27 50 11 0 -25 37 1 54 37 11 23 25 42 33 42 7 0 13 5 13 11 0 6 7 9
15 5 9 -3 20 3 27 14 7 11 16 20 21 20 4 0 18 9 30 21 19 18 22 18 25 4 3 -13
7 -14 18 -4 12 10 13 8 8 -7 -5 -18 -4 -18 11 1 9 11 21 29 27 40 10 18 10 19
-5 6 -27 -22 -20 3 8 29 14 13 25 27 25 32 0 10 51 57 63 58 5 0 6 -4 3 -9 -4
-5 3 -7 15 -4 11 3 17 9 12 12 -5 3 -9 11 -8 16 0 17 44 55 63 55 15 -1 15 -2
-2 -15 -19 -15 -19 -15 2 -15 13 0 25 7 28 15 4 8 12 15 20 15 8 0 14 5 14 10
0 7 -6 7 -19 0 -26 -13 -36 3 -19 32 7 13 11 26 10 31 -1 4 7 7 18 7 11 0 20
7 20 15 0 8 4 15 9 15 6 0 6 -12 1 -30 -15 -54 6 -31 24 25 15 48 20 55 43 55
20 0 23 3 14 14 -16 19 6 35 58 41 32 4 41 2 36 -7 -4 -7 4 0 18 15 14 16 31
26 36 22 6 -3 11 -2 11 3 0 5 -11 14 -25 20 -34 16 -33 36 3 28 23 -5 25 -4
11 6 -14 11 -14 15 -3 26 13 12 18 8 15 -11 -1 -4 8 -2 19 5 21 14 27 28 10
28 -5 0 -10 5 -10 11 0 5 5 7 11 4 13 -9 49 23 49 43 0 9 6 12 15 8 9 -3 15
-1 14 7 -4 29 3 37 42 55 23 11 36 21 30 23 -17 6 4 59 23 59 22 0 55 39 51
61 -2 10 0 19 6 19 5 0 9 11 9 24 0 27 44 86 65 86 7 0 18 7 25 15 7 8 8 15 3
15 -5 0 -18 6 -29 14 -19 14 -19 15 5 40 38 40 67 33 36 -8 -8 -11 -15 -25
-15 -30 0 -6 5 -4 11 4 7 11 9 -8 5 -65 -3 -44 -8 -127 -12 -184 -5 -82 -10
-109 -25 -125 -22 -23 -25 -40 -6 -33 19 7 21 -58 2 -73 -8 -7 -15 -23 -15
-35 0 -13 -7 -36 -15 -51 -8 -16 -15 -37 -15 -46 0 -10 -4 -18 -9 -18 -13 0
-21 -40 -8 -41 7 0 3 -4 -7 -8 -15 -6 -20 -18 -21 -51 -1 -27 -7 -47 -18 -55
-11 -8 -16 -24 -14 -51 1 -21 -3 -46 -8 -54 -5 -8 -11 -23 -12 -33 -2 -10 -10
-31 -18 -47 -8 -16 -15 -38 -15 -48 0 -11 -7 -33 -15 -48 -8 -16 -15 -37 -15
-46 0 -9 -4 -20 -10 -23 -5 -3 -10 -19 -10 -35 0 -16 -4 -32 -10 -35 -5 -3
-10 -14 -10 -24 0 -10 -10 -29 -22 -42 -13 -14 -29 -37 -35 -52 -7 -15 -17
-27 -22 -27 -6 0 -8 -7 -5 -15 3 -8 -4 -28 -15 -44 -12 -16 -21 -32 -21 -35 0
-3 -11 -17 -25 -32 -14 -15 -25 -35 -25 -45 0 -11 -5 -19 -11 -19 -5 0 -9 -10
-7 -23 2 -15 -4 -25 -19 -32 -13 -5 -23 -15 -23 -22 0 -7 -9 -17 -20 -23 -11
-6 -20 -15 -20 -21 0 -6 -10 -25 -22 -42 -13 -17 -27 -39 -33 -49 -5 -9 -30
-40 -53 -67 -44 -52 -44 -59 2 -41 21 8 24 7 19 -8 -3 -9 -20 -33 -37 -52 -44
-49 -64 -76 -48 -66 18 11 35 -3 22 -19 -6 -7 -8 -21 -4 -31 4 -14 3 -16 -4
-5 -5 7 -15 10 -21 7 -17 -11 -13 -23 8 -29 30 -7 24 -45 -6 -39 -12 2 -21 8
-18 12 6 10 -34 25 -42 16 -3 -3 2 -8 11 -12 9 -3 16 -18 17 -33 0 -23 1 -24
9 -6 8 19 9 19 9 -2 1 -12 -7 -26 -16 -31 -60 -32 -511 -128 -753 -161 -134
-19 -120 -19 2163 -20 l2297 -1 0 2295 c0 1262 -1 2295 -3 2295 -1 0 -10 -62
-20 -137z"/>
<path d="M4366 2944 c-14 -15 -26 -30 -26 -33 0 -3 30 -7 67 -8 47 -1 71 -6
78 -17 11 -14 133 -76 162 -82 7 -1 20 -9 29 -18 22 -23 34 -20 34 9 0 20 5
25 24 25 30 0 56 28 37 39 -23 15 20 18 103 9 105 -11 119 5 20 22 -54 9 -72
16 -58 21 18 6 18 7 1 14 -10 4 -23 3 -30 -4 -6 -6 -21 -11 -34 -11 -20 0 -21
3 -13 26 l10 25 -77 -6 c-43 -3 -99 -11 -125 -17 -43 -10 -54 -9 -101 10 -66
28 -69 28 -101 -4z"/>
<path d="M5880 2930 c0 -32 -77 -60 -172 -62 -47 -1 -96 -7 -109 -13 l-22 -13
21 -7 c13 -3 38 -5 57 -4 19 2 37 0 41 -4 12 -12 46 -8 38 5 -5 8 10 10 56 5
50 -4 68 -11 91 -33 16 -15 32 -24 36 -21 3 4 1 7 -5 7 -7 0 -12 6 -12 13 0 8
15 13 40 14 40 2 44 -2 43 -44 -1 -15 23 -17 31 -4 4 5 1 11 -6 13 -6 2 -8 10
-4 17 6 9 11 9 21 1 15 -13 57 -9 76 7 8 6 24 13 35 17 12 4 34 18 50 31 16
14 37 25 47 25 9 0 17 3 17 8 0 4 11 14 25 23 l26 15 -25 13 c-22 12 -30 11
-66 -8 -45 -23 -123 -28 -180 -10 -19 6 -61 14 -92 18 -50 6 -58 5 -58 -9z"/>
<path d="M5238 2879 c-23 -12 -46 -16 -74 -12 -23 3 -51 0 -63 -6 -11 -7 -21
-8 -21 -3 0 16 -49 20 -67 6 -17 -12 -16 -13 7 -22 16 -6 29 -6 37 0 15 12 36
1 27 -14 -4 -6 3 -4 17 5 30 22 104 23 96 3 -4 -10 -1 -13 7 -10 8 3 17 1 20
-5 4 -6 13 -8 20 -5 8 3 17 1 20 -5 4 -6 18 -6 37 -1 16 5 37 6 45 3 8 -3 14
1 14 9 0 10 12 13 43 12 23 -1 30 0 15 3 -41 7 -34 23 10 24 27 1 30 3 12 6
-14 3 -30 9 -37 15 -7 5 -16 8 -20 5 -4 -2 -31 -1 -60 2 -40 6 -59 3 -85 -10z"/>
<path d="M3300 2429 c0 -15 -5 -19 -16 -15 -8 3 -12 2 -9 -3 3 -6 -2 -14 -10
-19 -15 -8 -14 -10 1 -23 11 -9 15 -9 10 -1 -4 6 -4 17 0 23 11 18 24 -11 24
-53 0 -20 7 -43 15 -52 20 -19 19 -32 0 -16 -9 7 -19 9 -23 5 -4 -4 -1 -10 6
-12 6 -3 12 -11 12 -19 0 -9 5 -12 12 -8 8 5 9 2 5 -9 -7 -20 -6 -20 27 -7 25
9 46 -3 26 -15 -5 -3 -10 -11 -10 -16 0 -6 5 -7 10 -4 6 3 10 2 10 -3 0 -5 13
-15 30 -22 16 -7 27 -16 24 -21 -3 -5 0 -9 6 -9 6 0 10 -7 8 -16 -2 -10 2 -19
9 -21 9 -3 10 7 6 34 -3 21 -2 35 2 31 13 -12 15 -61 4 -75 -8 -9 -5 -18 10
-34 12 -13 21 -26 21 -30 0 -4 7 -15 16 -23 12 -12 20 -13 35 -6 23 13 25 2 2
-15 -14 -11 -12 -13 15 -23 21 -7 34 -20 38 -36 3 -14 11 -26 16 -26 6 0 8 7
4 15 -6 18 -2 19 25 4 16 -8 18 -13 8 -25 -16 -19 -5 -29 18 -15 10 6 13 11 6
11 -7 0 -10 6 -7 14 3 8 -4 21 -16 29 -31 22 -19 61 16 53 18 -5 24 -2 24 10
0 8 -6 14 -12 11 -7 -2 -21 0 -30 5 -14 7 -18 5 -18 -9 0 -15 -2 -16 -10 -3
-5 9 -5 19 1 26 7 8 6 14 -3 17 -9 4 -10 8 -3 14 6 4 18 20 27 34 l17 27 -25
-12 c-13 -6 -27 -21 -30 -33 -8 -32 -21 -29 -29 7 -4 17 -11 30 -16 30 -6 0
-6 -8 1 -19 5 -11 10 -23 10 -28 -1 -4 -7 4 -15 19 -8 15 -25 30 -37 34 -19 6
-19 7 -5 16 14 7 14 12 5 28 -7 10 -16 16 -20 14 -4 -3 -8 -1 -8 5 0 6 -6 8
-14 5 -8 -3 -17 0 -22 7 -5 9 -2 10 9 6 28 -11 19 11 -10 25 -14 7 -28 20 -31
28 -3 13 -2 13 7 0 9 -13 11 -13 11 2 0 26 -21 33 -37 12 -12 -17 -13 -15 -7
13 4 20 2 33 -7 38 -7 5 -10 4 -6 -1 3 -6 2 -16 -4 -24 -7 -12 -9 -11 -9 5 0
11 -9 26 -20 33 -11 7 -20 18 -20 25 0 7 -7 23 -16 36 -13 18 -18 20 -26 10
-5 -9 -6 0 -2 24 3 20 3 37 0 37 -3 0 -6 -9 -6 -21z"/>
</g>
</svg>
